<?xml version="1.0" encoding="iso-8859-1"?>
<!-- Generator: Adobe Illustrator 18.0.0, SVG Export Plug-In . SVG Version: 6.00 Build 0)  -->
<!DOCTYPE svg PUBLIC "-//W3C//DTD SVG 1.1//EN" "http://www.w3.org/Graphics/SVG/1.1/DTD/svg11.dtd">
<svg version="1.1" id="Capa_1" xmlns="http://www.w3.org/2000/svg" xmlns:xlink="http://www.w3.org/1999/xlink" x="0px" y="0px"
	 viewBox="0 0 262 262" style="enable-background:new 0 0 262 262;" xml:space="preserve">
<g>
	<path d="M247,18H15C6.716,18,0,24.717,0,33v196c0,8.285,6.716,15,15,15h232c8.284,0,15-6.715,15-15V33
		C262,24.717,255.284,18,247,18z M232,214H30V48h202V214z"/>
	<path d="M182.918,158.081c1.903,0.936,4.173,0.715,5.86-0.572l23.221-17.718c2.782-2.121,4.406-5.425,4.393-8.922
		c-0.016-3.498-1.669-6.787-4.468-8.886l-23.37-17.521c-1.697-1.272-3.971-1.476-5.865-0.522c-1.896,0.955-3.088,2.897-3.08,5.019
		l0.188,44.13C179.806,155.209,181.015,157.143,182.918,158.081z"/>
	<path d="M50.002,139.791l23.22,17.718c1.689,1.287,3.958,1.509,5.861,0.572c1.904-0.939,3.113-2.872,3.121-4.993l0.188-44.13
		c0.01-2.121-1.184-4.063-3.079-5.019c-1.895-0.953-4.167-0.75-5.864,0.522l-23.371,17.521c-2.799,2.099-4.453,5.388-4.469,8.886
		C45.595,134.366,47.22,137.67,50.002,139.791z"/>
	<path d="M122.21,198.998c2.121,2.783,5.424,4.406,8.922,4.394c3.497-0.016,6.786-1.67,8.885-4.468l17.521-23.371
		c1.271-1.697,1.475-3.97,0.522-5.865c-0.956-1.895-2.897-3.088-5.018-3.079l-44.13,0.188c-2.12,0.009-4.055,1.218-4.993,3.122
		c-0.937,1.902-0.715,4.172,0.572,5.86L122.21,198.998z"/>
	<path d="M108.912,95.203l44.13,0.188c2.121,0.009,4.064-1.184,5.018-3.079c0.953-1.895,0.751-4.168-0.522-5.865l-17.521-23.371
		c-2.098-2.799-5.387-4.452-8.886-4.468c-3.497-0.014-6.802,1.61-8.922,4.393l-17.718,23.22c-1.287,1.689-1.509,3.958-0.572,5.861
		C104.858,93.986,106.79,95.195,108.912,95.203z"/>
</g>
<g>
</g>
<g>
</g>
<g>
</g>
<g>
</g>
<g>
</g>
<g>
</g>
<g>
</g>
<g>
</g>
<g>
</g>
<g>
</g>
<g>
</g>
<g>
</g>
<g>
</g>
<g>
</g>
<g>
</g>
</svg>
